<?xml version="1.0" standalone="no"?>
<!DOCTYPE svg PUBLIC "-//W3C//DTD SVG 1.1//EN" "http://www.w3.org/Graphics/SVG/1.1/DTD/svg11.dtd" >
<svg xmlns="http://www.w3.org/2000/svg" xmlns:xlink="http://www.w3.org/1999/xlink" version="1.1" viewBox="-30 -210 2570 2248">
  <g transform="matrix(1 0 0 -1 0 1638)">
   <path fill="currentColor"
d="M2070 -251h246q20 0 35 -14t15 -35q0 -20 -15 -34.5t-35 -14.5h-2132q-21 0 -35.5 14.5t-14.5 34.5v2118q0 20 14.5 34.5t35.5 14.5q20 0 34.5 -14.5t14.5 -34.5v-2069h249v1947q0 24 16 39.5t40 15.5h207q23 0 38.5 -15.5t15.5 -39.5v-1947h318v1279q0 24 16 40.5
t40 16.5h206q24 0 40 -16.5t16 -40.5v-1279h316v1632q0 24 16.5 40.5t39.5 16.5h207q23 0 39.5 -16.5t16.5 -40.5v-1632z" />
  </g>

</svg>
