<?xml version="1.0" encoding="utf-8"?>
<!-- Generator: Adobe Illustrator 23.0.1, SVG Export Plug-In . SVG Version: 6.00 Build 0)  -->
<svg version="1.1" id="Layer_1" xmlns="http://www.w3.org/2000/svg" xmlns:xlink="http://www.w3.org/1999/xlink" x="0px" y="0px"
	 viewBox="0 0 48 60" style="enable-background:new 0 0 48 60;" xml:space="preserve">
<title>delete remove</title>
<g>
	<path d="M41.7,11.8H31.6c-0.1-1.4-1.2-2.6-2.6-2.6H19c-1.4,0-2.5,1.1-2.6,2.6H6.3c-0.8,0-1.5,0.7-1.5,1.5v0.8
		c0,0.8,0.7,1.5,1.5,1.5h35.4c0.8,0,1.5-0.7,1.5-1.5v-0.8C43.2,12.5,42.5,11.8,41.7,11.8z"/>
	<path d="M42.2,17.3H5.8c-0.5,0-0.9,0.4-0.9,0.9v2.7c0,0.5,0.4,0.9,0.9,0.9h1.6l6.6,26.4c0.4,1.6,1.8,2.3,3.1,2.2c0,0,0.1,0,0.1,0
		h13.2c0.1,0,0.1,0,0.2,0c1.4,0.1,2.8-0.6,3.2-2.2l6.6-26.4h1.7c0.5,0,0.9-0.4,0.9-0.9v-2.7C43,17.7,42.6,17.3,42.2,17.3z
		 M20.9,42.4c0,0.4-0.3,0.8-0.8,0.8h-1.6c-0.4,0-0.8-0.3-0.8-0.8V25.8c0-0.4,0.3-0.8,0.8-0.8h1.6c0.4,0,0.8,0.3,0.8,0.8V42.4z
		 M29.9,42.4c0,0.4-0.3,0.8-0.8,0.8h-1.6c-0.4,0-0.8-0.3-0.8-0.8V25.8c0-0.4,0.3-0.8,0.8-0.8h1.6c0.4,0,0.8,0.3,0.8,0.8V42.4z"/>
</g>
</svg>
