<?xml version="1.0" encoding="utf-8"?>
<!-- Generator: Adobe Illustrator 16.0.3, SVG Export Plug-In . SVG Version: 6.00 Build 0)  -->
<!DOCTYPE svg PUBLIC "-//W3C//DTD SVG 1.1//EN" "http://www.w3.org/Graphics/SVG/1.1/DTD/svg11.dtd">
<svg version="1.1" id="Warstwa_1" xmlns="http://www.w3.org/2000/svg" xmlns:xlink="http://www.w3.org/1999/xlink" x="0px" y="0px"
	 width="40px" height="40px" viewBox="0 0 40 40" enable-background="new 0 0 40 40" xml:space="preserve">
<g>
	<path fill="#575756" d="M20.317,7C13.861,7,8.61,12.251,8.61,18.706c0,6.457,5.251,11.71,11.707,11.71
		c6.457,0,11.709-5.253,11.709-11.71C32.026,12.251,26.774,7,20.317,7z M20.317,28.286c-5.281,0-9.578-4.297-9.578-9.58
		c0-5.28,4.297-9.578,9.578-9.578c5.284,0,9.58,4.298,9.58,9.578C29.896,23.989,25.599,28.286,20.317,28.286z"/>
	<path fill="#575756" d="M20.317,11.966c-0.782,0-1.419,0.637-1.419,1.42c0,0.782,0.637,1.418,1.419,1.418
		c0.783,0,1.419-0.636,1.419-1.418C21.736,12.603,21.1,11.966,20.317,11.966z"/>
	<path fill="#575756" d="M20.317,16.933c-0.586,0-1.064,0.479-1.064,1.064v6.389c0,0.585,0.479,1.063,1.064,1.063
		c0.589,0,1.064-0.478,1.064-1.063v-6.389C21.381,17.411,20.906,16.933,20.317,16.933z"/>
</g>
</svg>
